<?xml version="1.0" encoding="UTF-8"?>
<!-- Generator: visioncortex VTracer 0.6.12 -->
<svg version="1.1" xmlns="http://www.w3.org/2000/svg" viewBox="0 0 1024 1024" width="100%" height="100%">
<path d="M0 0 C337.92 0 675.84 0 1024 0 C1024 337.92 1024 675.84 1024 1024 C686.08 1024 348.16 1024 0 1024 C0 686.08 0 348.16 0 0 Z " fill="#192E49" transform="translate(0,0)"/>
<path d="M0 0 C337.92 0 675.84 0 1024 0 C1024 337.92 1024 675.84 1024 1024 C686.08 1024 348.16 1024 0 1024 C0 686.08 0 348.16 0 0 Z M494.33 2.09 C420.65 4.16 345.17 23.42 280 58 C278.18 58.95 276.35 59.91 274.48 60.89 C243.68 77.23 214.41 96.72 187.96 119.47 C185.25 121.78 182.47 124.02 179.69 126.25 C91.4 199.99 34.34 306.1 12 418 C11.63 419.85 11.26 421.7 10.88 423.61 C2.02 471.93 1.09 522.28 7 571 C7.28 573.35 7.56 575.71 7.84 578.13 C16.22 642.24 37.09 704.79 69 761 C69.83 762.47 70.67 763.94 71.52 765.45 C84.64 788.14 99.58 809.58 116 830 C117.48 831.86 118.97 833.71 120.5 835.62 C125.5 841.6 130.71 847.28 136 853 C136.96 854.13 137.92 855.26 138.9 856.42 C144.99 863.22 151.47 869.62 157.94 876.06 C159.27 877.4 160.6 878.73 161.97 880.11 C168.15 886.29 174.33 892.34 181 898 C181.99 898.99 182.98 899.98 184 901 C184.99 901.33 185.98 901.66 187 902 C188.65 903.65 190.3 905.3 192 907 C197 911 197 911 199 911 C199 911.66 199 912.32 199 913 C205 917 205 917 207 917 C207 917.66 207 918.32 207 919 C209.43 920.82 211.92 922.56 214.44 924.25 C215.91 925.25 217.39 926.24 218.91 927.27 C220.26 928.17 221.61 929.07 223 930 C224.46 930.99 225.93 931.98 227.44 933 C228.19 933.5 228.19 933.5 232 936 C233.23 936.81 234.46 937.62 235.72 938.45 C281.44 968.34 331.28 989.92 384 1004 C386.07 1004.55 388.13 1005.1 390.26 1005.67 C488.7 1030.57 593.88 1023.95 689 989 C690.67 988.4 692.34 987.79 694.05 987.17 C707.7 982.13 720.87 976.25 734 970 C735.8 969.15 737.6 968.29 739.46 967.41 C775.28 950 808.39 927.39 839 902 C840.01 901.16 840.01 901.16 845.12 896.94 C889.31 859.38 925.89 814.04 955 764 C955.67 762.86 956.35 761.72 957.04 760.54 C998.22 689.78 1020.7 605.76 1022 524 C1022.04 522.02 1022.08 520.03 1022.12 517.99 C1023.1 425.55 999.61 334.95 953 255 C952.18 253.59 951.37 252.19 950.52 250.74 C930.97 217.65 907.38 186.38 880.19 159.19 C877 156 877 156 873.69 152.12 C869.43 147.36 864.78 143.25 860 139 C858.7 137.68 857.4 136.36 856.06 135 C851.3 130.31 846.21 126.2 841 122 C838.93 120.23 836.87 118.46 834.81 116.69 C824.37 107.82 813.31 99.72 802 92 C800.71 91.12 799.42 90.24 798.09 89.33 C707.7 28.25 602.89 0.37 494.33 2.09 Z " fill="#FFFFFF" transform="translate(0,0)"/>
<path d="M0 0 C1.02 -0 1.02 -0 6.19 -0.03 C8.42 -0.03 10.66 -0.04 12.96 -0.04 C15.23 -0.05 17.51 -0.05 19.86 -0.06 C24.7 -0.07 29.54 -0.08 34.38 -0.08 C41.77 -0.09 49.16 -0.12 56.56 -0.15 C61.25 -0.16 65.95 -0.16 70.64 -0.17 C72.85 -0.18 75.06 -0.19 77.34 -0.2 C95.2 -0.18 108.52 0.75 120.53 15.16 C125.98 26.94 126.66 38.54 120.53 50.16 C111.72 62.32 99.68 65.36 85.32 65.5 C83.29 65.52 81.26 65.54 79.17 65.57 C77 65.58 74.82 65.6 72.58 65.61 C71.46 65.62 71.46 65.62 65.78 65.68 C61.04 65.72 56.3 65.76 51.57 65.79 C44.29 65.85 37.02 65.92 29.75 65.99 C25.15 66.03 20.55 66.07 15.95 66.11 C14.86 66.12 14.86 66.12 9.33 66.17 C7.31 66.19 5.3 66.2 3.22 66.21 C2.33 66.22 2.33 66.22 -2.17 66.26 C-6.47 66.16 -6.47 66.16 -10.47 65.16 C-10.84 60.4 -10.96 55.86 -10.9 51.1 C-10.89 49.68 -10.89 48.27 -10.89 46.81 C-10.88 43.8 -10.86 40.8 -10.83 37.8 C-10.78 33.18 -10.77 28.57 -10.75 23.95 C-10.74 21.04 -10.72 18.13 -10.71 15.22 C-10.7 13.83 -10.69 12.44 -10.69 11.01 C-10.58 0.04 -10.58 0.04 0 0 Z " fill="#192E49" transform="translate(164.469970703125,453.8388671875)"/>
<path d="M0 0 C14.59 -0.08 29.18 -0.13 43.77 -0.16 C48.74 -0.18 53.7 -0.2 58.66 -0.23 C65.8 -0.26 72.94 -0.28 80.08 -0.29 C81.18 -0.3 81.18 -0.3 86.78 -0.34 C102.86 -0.34 118.81 -0.25 129.5 13.5 C135.21 23.78 136.99 38.36 131 49 C122.1 61.5 108.73 65.2 94.08 65.33 C92.12 65.36 90.15 65.38 88.13 65.4 C86.02 65.42 83.91 65.43 81.74 65.45 C80.65 65.46 80.65 65.46 75.15 65.52 C70.56 65.56 65.97 65.6 61.37 65.63 C54.33 65.69 47.28 65.76 40.24 65.83 C35.78 65.87 31.32 65.91 26.86 65.95 C25.81 65.96 25.81 65.96 20.46 66.01 C18.5 66.03 16.54 66.04 14.53 66.05 C12.81 66.07 11.08 66.08 9.31 66.1 C5 66 5 66 0 65 C-0.46 60.11 -0.58 55.57 -0.49 50.68 C-0.48 49.24 -0.47 47.8 -0.47 46.32 C-0.44 41.69 -0.38 37.06 -0.31 32.44 C-0.29 29.31 -0.26 26.18 -0.24 23.06 C-0.19 15.37 -0.1 7.69 0 0 Z " fill="#192E49" transform="translate(330,454)"/>
<path d="M0 0 C1.04 -0 1.04 -0 6.27 -0.02 C7.41 -0.02 7.41 -0.02 13.13 -0.02 C14.29 -0.02 14.29 -0.02 20.14 -0.03 C25.06 -0.04 29.98 -0.04 34.89 -0.04 C42.39 -0.04 49.88 -0.06 57.37 -0.08 C62.15 -0.08 66.92 -0.08 71.7 -0.09 C73.93 -0.09 76.16 -0.1 78.46 -0.11 C101.25 -0.07 124.62 0.13 139.41 20.15 C146.2 36.4 147.3 53.46 136.41 68.15 C124.43 80.3 110.06 83.71 93.41 85.15 C93.41 90.25 101.65 95.35 105.28 98.52 C110.21 102.85 114.77 107.51 119.41 112.15 C122.07 114.49 124.73 116.82 127.41 119.15 C131.1 122.57 134.77 126 138.43 129.45 C141.41 132.15 141.41 132.15 143.41 133.15 C143.41 133.81 143.41 134.47 143.41 135.15 C131.87 136.15 127.82 135.02 120.41 126.15 C119.13 125.03 117.85 123.92 116.53 122.77 C111.25 118.13 106.38 113.12 101.41 108.15 C98.75 105.81 96.08 103.48 93.41 101.15 C90.08 97.81 86.74 94.48 83.41 91.15 C75.62 84.65 69.43 85.42 59.76 85.44 C58.04 85.42 56.32 85.41 54.54 85.39 C49.04 85.35 43.54 85.34 38.03 85.33 C34.3 85.31 30.57 85.28 26.84 85.26 C17.7 85.19 8.56 85.17 -0.59 85.15 C-0.59 101.65 -0.59 118.15 -0.59 135.15 C-3.89 135.15 -7.19 135.15 -10.59 135.15 C-10.61 117.69 -10.63 100.24 -10.64 82.78 C-10.65 74.68 -10.65 66.58 -10.67 58.47 C-10.68 50.66 -10.68 42.85 -10.68 35.03 C-10.69 32.04 -10.69 29.06 -10.7 26.07 C-10.7 21.9 -10.7 17.73 -10.7 13.56 C-10.71 11.18 -10.71 8.8 -10.71 6.35 C-10.51 -2.13 -7.85 0.02 0 0 Z M-0.59 10.15 C-0.59 31.6 -0.59 53.05 -0.59 75.15 C4.78 76.04 9.45 76.26 14.88 76.23 C15.84 76.23 15.84 76.23 20.7 76.21 C21.73 76.2 21.73 76.2 26.98 76.16 C29.11 76.15 31.25 76.14 33.45 76.12 C37.97 76.09 42.5 76.05 47.02 76.01 C53.92 75.96 60.82 75.93 67.72 75.9 C72.12 75.87 76.52 75.83 80.91 75.79 C81.94 75.79 81.94 75.79 87.15 75.78 C105.07 75.56 121.08 73.28 131.41 57.15 C135.96 43.5 134.47 30.47 125.41 19.15 C110.99 9.13 96.39 9.73 79.49 9.85 C77.2 9.86 74.91 9.86 72.54 9.87 C65.25 9.88 57.95 9.92 50.66 9.96 C45.7 9.97 40.75 9.99 35.79 10 C23.66 10.03 11.54 10.09 -0.59 10.15 Z " fill="#FFFFFF" transform="translate(330.590087890625,443.854736328125)"/>
<path d="M0 0 C0.68 -0 0.68 -0 4.13 -0.01 C8.67 -0.01 13.2 -0.01 17.74 -0 C20.87 -0 24.01 -0.01 27.14 -0.01 C33.72 -0.01 40.3 -0.01 46.89 -0 C55.34 0 63.8 0 72.26 -0 C78.74 -0.01 85.21 -0.01 91.69 -0 C94.81 -0 97.93 -0 101.05 -0.01 C105.4 -0.01 109.75 -0.01 114.1 0 C116.58 0 119.07 0 121.62 0 C127.05 0.13 127.05 0.13 128.05 1.13 C128.05 3.77 128.05 6.41 128.05 9.13 C84.49 9.46 40.93 9.79 -3.95 10.13 C-3.95 60.13 -3.95 60.13 -2.95 61.13 C0.67 61.25 4.29 61.31 7.9 61.33 C10.25 61.35 12.59 61.37 15 61.4 C17.56 61.41 20.11 61.43 22.74 61.45 C24.04 61.46 24.04 61.46 30.61 61.51 C37.52 61.56 44.44 61.61 51.36 61.66 C58.41 61.71 65.46 61.77 72.51 61.82 C86.36 61.93 100.2 62.03 114.05 62.13 C114.05 64.77 114.05 67.41 114.05 70.13 C75.11 70.46 36.17 70.79 -3.95 71.13 C-3.95 88.95 -3.95 106.77 -3.95 125.13 C0.07 125.15 4.1 125.18 8.24 125.21 C21.5 125.29 34.76 125.38 48.02 125.47 C56.07 125.52 64.11 125.58 72.15 125.63 C79.91 125.67 87.66 125.73 95.42 125.78 C98.38 125.8 101.35 125.82 104.31 125.84 C108.45 125.86 112.59 125.89 116.73 125.92 C117.91 125.93 117.91 125.93 123.88 125.97 C129.05 126.13 129.05 126.13 130.05 127.13 C130.05 129.77 130.05 132.41 130.05 135.13 C124.8 136.88 119.26 136.2 113.77 136.15 C113.08 136.15 113.08 136.15 109.6 136.12 C105.04 136.09 100.48 136.05 95.91 136.01 C92.76 135.98 89.6 135.96 86.44 135.94 C78.12 135.87 69.8 135.8 61.48 135.73 C53 135.66 44.51 135.6 36.03 135.53 C19.37 135.4 2.71 135.27 -13.95 135.13 C-13.97 117.68 -13.99 100.22 -14 82.77 C-14.01 74.66 -14.01 66.56 -14.02 58.46 C-14.04 50.64 -14.04 42.83 -14.04 35.02 C-14.05 32.03 -14.05 29.04 -14.05 26.05 C-14.06 21.88 -14.06 17.71 -14.06 13.54 C-14.06 11.17 -14.07 8.79 -14.07 6.34 C-13.85 -3.14 -8.56 0 0 0 Z " fill="#FFFFFF" transform="translate(744.94921875,443.87060546875)"/>
<path d="M0 0 C2.05 -0.01 4.09 -0.01 6.2 -0.02 C8.44 -0.02 10.67 -0.01 12.97 -0.01 C15.26 -0.01 17.55 -0.01 19.9 -0.01 C24.76 -0.01 29.62 -0.01 34.48 -0 C41.88 0.01 49.28 -0 56.68 -0.01 C61.4 -0.01 66.12 -0.01 70.85 -0.01 C71.95 -0.01 71.95 -0.01 77.52 -0.02 C125.31 0.12 125.31 0.12 139.4 21.26 C146.94 36.54 145.44 54.89 136.34 69.01 C123.17 83.22 105.62 85.4 87.18 85.37 C86.19 85.37 86.19 85.37 81.18 85.37 C79.06 85.37 76.95 85.36 74.77 85.36 C72.59 85.36 70.4 85.35 68.16 85.35 C61.2 85.35 54.24 85.33 47.28 85.32 C42.56 85.32 37.83 85.31 33.11 85.31 C21.54 85.3 9.97 85.28 -1.6 85.26 C-1.6 101.76 -1.6 118.26 -1.6 135.26 C-4.9 135.26 -8.2 135.26 -11.6 135.26 C-11.64 117.95 -11.68 100.65 -11.7 83.34 C-11.71 75.3 -11.72 67.27 -11.75 59.23 C-11.77 51.49 -11.78 43.74 -11.79 35.99 C-11.79 33.03 -11.8 30.06 -11.81 27.1 C-11.82 22.97 -11.82 18.83 -11.82 14.69 C-11.83 12.34 -11.83 9.98 -11.84 7.55 C-11.43 -1.41 -8.03 0.01 0 0 Z M-1.6 11.26 C-1.89 20.38 -1.91 29.5 -1.95 38.62 C-1.96 41.71 -1.99 44.8 -2.03 47.89 C-2.08 52.33 -2.1 56.76 -2.12 61.2 C-2.14 62.59 -2.16 63.98 -2.19 65.41 C-2.18 69.29 -2.18 69.29 -1.6 75.26 C3.48 76.27 7.87 76.37 13.04 76.34 C15.02 76.34 17 76.33 19.04 76.32 C20.11 76.31 20.11 76.31 25.53 76.28 C27.73 76.26 29.94 76.25 32.21 76.24 C36.88 76.2 41.55 76.17 46.22 76.13 C53.35 76.07 60.48 76.04 67.6 76.01 C72.14 75.98 76.68 75.94 81.22 75.9 C82.28 75.9 82.28 75.9 87.66 75.89 C105.67 75.68 118.48 73.57 130.4 59.26 C136.31 46.22 134.49 32.38 126.28 20.88 C116.6 11.83 105.68 10.01 92.85 10.02 C90.77 10.01 88.69 10.01 86.55 10.01 C85.44 10.01 85.44 10.01 79.81 10.03 C77.52 10.03 75.22 10.03 72.86 10.03 C68.02 10.03 63.18 10.04 58.35 10.05 C50.9 10.07 43.46 10.07 36.02 10.07 C31.33 10.08 26.63 10.08 21.94 10.09 C19.69 10.09 17.45 10.09 15.14 10.09 C13.09 10.1 11.04 10.11 8.92 10.11 C7.1 10.12 5.29 10.12 3.41 10.13 C-0.6 10.26 -0.6 10.26 -1.6 11.26 Z " fill="#FFFFFF" transform="translate(155.595947265625,443.7412109375)"/>
<path d="M0 0 C7.21 -0.84 8.25 -0.93 13 5 C15.79 9.46 18.54 13.93 21.25 18.44 C21.98 19.63 22.7 20.83 23.45 22.06 C27.15 28.18 30.79 34.34 34.32 40.56 C37.71 46.5 41.32 52.24 45 58 C47.34 62 49.67 66 52 70 C58.6 80.97 65.38 91.81 72.27 102.6 C75.81 108.3 79.01 114.16 82.19 120.06 C84 123 84 123 86 123 C88.17 119.47 90.33 115.93 92.43 112.36 C94.94 108.1 97.54 103.92 100.19 99.75 C104.04 93.62 107.54 87.37 111 81 C113.87 76.15 116.79 71.32 119.7 66.49 C124.17 59.05 128.58 51.57 132.99 44.09 C134.97 40.73 136.97 37.39 138.97 34.05 C143.33 26.78 147.6 19.46 151.88 12.14 C159.2 0.07 159.2 0.07 164.81 -0.44 C166.19 -0.29 167.58 -0.15 169 0 C169 6.78 164.48 12.13 161.06 17.81 C160.28 19.12 159.5 20.44 158.7 21.79 C156.47 25.53 154.24 29.27 152 33 C151.04 34.63 150.07 36.26 149.08 37.93 C146.1 42.95 143.07 47.9 139.81 52.75 C136.55 57.68 133.82 62.8 131 68 C124.55 79.13 117.99 90.2 111.19 101.12 C107.17 107.6 103.51 114.25 99.88 120.96 C98 124 98 124 96 124 C95.84 124.66 95.84 124.66 95 128 C92.86 134.1 91.75 134.82 85.31 136.38 C75.74 134.29 74.18 128.33 70 120 C68.5 117.44 66.98 114.9 65.44 112.38 C64.69 111.13 63.94 109.88 63.17 108.6 C61.2 105.32 59.19 102.07 57.19 98.81 C51.72 89.92 46.36 80.96 41 72 C37.93 66.88 34.85 61.76 31.78 56.64 C30.13 53.89 28.49 51.14 26.84 48.39 C21.66 39.72 16.42 31.08 11.19 22.44 C10.45 21.21 9.7 19.98 8.94 18.72 C5.72 13.41 2.45 8.17 -1 3 C-0.67 2.01 -0.34 1.02 0 0 Z " fill="#FFFFFF" transform="translate(540,444)"/>
<path d="M0 0 C0.66 0.33 1.32 0.66 2 1 C2.19 5.13 2.23 9.28 2.23 13.41 C2.23 14.72 2.23 16.03 2.23 17.38 C2.23 21.72 2.21 26.07 2.2 30.41 C2.19 33.41 2.19 36.42 2.19 39.42 C2.18 47.34 2.16 55.26 2.14 63.19 C2.12 71.26 2.11 79.34 2.1 87.42 C2.08 103.28 2.04 119.14 2 135 C-1.3 135 -4.6 135 -8 135 C-8.02 117.55 -8.04 100.09 -8.05 82.64 C-8.06 74.53 -8.06 66.43 -8.08 58.33 C-8.09 50.51 -8.09 42.7 -8.09 34.89 C-8.1 31.9 -8.1 28.91 -8.11 25.92 C-8.11 21.75 -8.11 17.58 -8.11 13.41 C-8.12 11.04 -8.12 8.66 -8.12 6.21 C-7.98 0 -7.98 0 0 0 Z " fill="#FFFFFF" transform="translate(513,444)"/>
<path d="M0 0 C0.16 0.82 0.16 0.82 1 5 C-3.69 7.31 -3.69 7.31 -11 10 C-14.23 11.31 -17.46 12.62 -20.69 13.94 C-43.83 23.17 -43.83 23.17 -53 25 C-53.33 23.35 -53.66 21.7 -54 20 C-48.75 17.2 -48.75 17.2 -41.44 14.25 C-40.17 13.73 -38.91 13.22 -37.6 12.68 C-35 11.62 -32.4 10.57 -29.79 9.53 C-26.3 8.12 -22.84 6.66 -19.38 5.18 C-4.51 -1.13 -4.51 -1.13 0 0 Z " fill="#FFFFFF" transform="translate(831,404)"/>
</svg>
