<?xml version="1.0" encoding="UTF-8"?>
<svg xmlns="http://www.w3.org/2000/svg" viewBox="0 0 2000 2000" width="100%" height="100%">
<circle cx="1000" cy="1000" r="1000" fill="#192E49"/>
<path d="M0 0 C1.64 -0 3.28 -0.01 4.96 -0.01 C10.41 -0.02 15.86 -0.02 21.31 -0.02 C25.1 -0.03 28.88 -0.03 32.67 -0.03 C40.63 -0.04 48.58 -0.04 56.54 -0.04 C66.71 -0.04 76.87 -0.05 87.03 -0.07 C94.87 -0.08 102.7 -0.08 110.53 -0.08 C114.27 -0.08 118.02 -0.09 121.76 -0.1 C127.03 -0.11 132.29 -0.1 137.55 -0.1 C139.08 -0.1 140.61 -0.11 142.18 -0.11 C169.17 -0.04 197.08 2.94 213.75 27.02 C223.57 46.19 225.15 69.11 215.06 88.52 C197.74 114.94 168.99 118.49 139.6 118.39 C137.91 118.39 136.21 118.39 134.46 118.39 C128.9 118.4 123.34 118.39 117.79 118.38 C113.91 118.37 110.04 118.37 106.16 118.37 C98.07 118.37 89.98 118.36 81.88 118.35 C71.49 118.33 61.09 118.33 50.69 118.33 C42.7 118.33 34.72 118.33 26.73 118.32 C22.89 118.31 19.05 118.31 15.22 118.31 C9.88 118.31 4.55 118.3 -0.79 118.29 C-2.39 118.29 -3.99 118.29 -5.63 118.29 C-16.51 118.26 -16.51 118.26 -17.62 117.15 C-17.73 113.56 -17.76 109.98 -17.77 106.4 C-17.77 104.08 -17.78 101.76 -17.79 99.37 C-17.79 96.84 -17.79 94.31 -17.79 91.71 C-17.79 89.14 -17.8 86.57 -17.8 83.92 C-17.81 78.47 -17.81 73.02 -17.81 67.56 C-17.81 60.56 -17.82 53.55 -17.84 46.55 C-17.85 39.89 -17.85 33.24 -17.85 26.58 C-17.86 24.05 -17.87 21.52 -17.88 18.92 C-17.87 16.6 -17.87 14.28 -17.87 11.89 C-17.87 9.84 -17.87 7.78 -17.87 5.66 C-17.79 4.17 -17.71 2.68 -17.62 1.15 C-12.77 -1.28 -5.43 -0 0 0 Z " fill="#192E49" transform="translate(386.62,895.35)"/>
<path d="M0 0 C1.65 -0 3.3 -0.01 5 -0.01 C10.48 -0.02 15.97 -0.02 21.46 -0.02 C25.27 -0.03 29.08 -0.03 32.89 -0.03 C40.9 -0.04 48.91 -0.04 56.92 -0.04 C67.15 -0.04 77.38 -0.05 87.62 -0.07 C95.5 -0.08 103.38 -0.08 111.26 -0.08 C115.03 -0.08 118.8 -0.09 122.57 -0.1 C127.87 -0.11 133.17 -0.1 138.47 -0.1 C140.01 -0.1 141.55 -0.11 143.14 -0.11 C169.73 -0.04 197.37 3.28 213.64 27.08 C219.13 37.65 221.41 46.61 221.46 58.52 C221.47 60.12 221.49 61.71 221.5 63.36 C220.82 77.54 215.27 88.34 206.27 99.15 C205.61 99.15 204.95 99.15 204.27 99.15 C204.27 99.81 204.27 100.47 204.27 101.15 C183.09 115.72 160.85 118.48 135.75 118.39 C134.09 118.39 132.43 118.39 130.72 118.39 C125.3 118.4 119.88 118.39 114.46 118.38 C110.67 118.37 106.89 118.37 103.1 118.37 C95.21 118.37 87.31 118.36 79.41 118.35 C69.26 118.33 59.11 118.33 48.97 118.33 C41.17 118.33 33.37 118.33 25.57 118.32 C21.83 118.31 18.08 118.31 14.34 118.31 C9.13 118.31 3.93 118.3 -1.28 118.29 C-2.06 118.29 -2.06 118.29 -6.01 118.29 C-16.62 118.26 -16.62 118.26 -17.73 117.15 C-17.84 113.56 -17.87 109.98 -17.88 106.4 C-17.88 104.08 -17.89 101.76 -17.9 99.37 C-17.9 96.84 -17.9 94.31 -17.9 91.71 C-17.9 89.14 -17.91 86.57 -17.91 83.92 C-17.91 78.47 -17.92 73.02 -17.92 67.56 C-17.92 60.56 -17.93 53.55 -17.95 46.55 C-17.96 39.89 -17.96 33.24 -17.96 26.58 C-17.97 24.05 -17.98 21.52 -17.98 18.92 C-17.98 16.6 -17.98 14.28 -17.97 11.89 C-17.97 9.84 -17.98 7.78 -17.98 5.66 C-17.9 4.17 -17.81 2.68 -17.73 1.15 C-12.85 -1.29 -5.46 -0 0 0 Z " fill="#192E49" transform="translate(697.73,895.35)"/>
<path d="M0 0 C25.88 -0.07 51.76 -0.12 77.64 -0.16 C89.65 -0.17 101.67 -0.19 113.69 -0.23 C125.3 -0.26 136.9 -0.28 148.51 -0.28 C152.93 -0.29 157.35 -0.3 161.77 -0.32 C167.98 -0.34 174.18 -0.34 180.39 -0.34 C181.3 -0.35 181.3 -0.35 185.88 -0.37 C218.43 -0.3 249.81 8.15 267 38 C277.07 63.17 277.92 90.1 264 114 C242.64 140.39 213.15 146.04 181 149 C183.35 153.7 186.12 156.14 190 159.69 C191.35 160.93 192.7 162.17 194.09 163.45 C195.38 164.62 196.67 165.79 198 167 C198.92 167.84 198.92 167.84 203.56 172.06 C206.99 175.1 210.48 178.07 214 181 C214 181.66 214 182.32 214 183 C215.32 183.66 216.64 184.32 218 185 C221.07 187.93 223.99 190.99 226.93 194.05 C230 197 230 197 236 201 C236 201.66 236 202.32 236 203 C236.66 203 237.32 203 238 203 C238 203.66 238 204.32 238 205 C238.66 205 239.32 205 240 205 C243.45 208.45 246.88 211.91 250.31 215.38 C254.77 219.78 259.25 223.93 264 228 C267.39 230.93 270.74 233.92 274 237 C273 239 273 239 268.37 239.44 C266.41 239.48 264.45 239.52 262.44 239.56 C261.47 239.59 261.47 239.59 256.56 239.75 C249.77 238.83 247.69 236.88 243 232 C241.74 230.83 240.48 229.67 239.18 228.46 C236.68 226.11 234.18 223.76 231.68 221.4 C229.19 219.1 226.64 216.86 224.04 214.69 C221 212 221 212 221 210 C219.68 209.34 218.36 208.68 217 208 C214.54 205.65 212.13 203.25 209.75 200.81 C204.65 195.65 199.5 190.73 194 186 C186.53 179.17 179.19 172.25 172.06 165.06 C161.52 154.44 155.43 148.62 139.95 148.66 C139.28 148.66 139.28 148.66 135.93 148.66 C131.54 148.66 127.15 148.68 122.76 148.71 C119.72 148.71 116.68 148.72 113.64 148.72 C105.63 148.73 97.62 148.76 89.61 148.79 C81.44 148.82 73.27 148.84 65.1 148.85 C49.07 148.89 33.03 148.94 17 149 C17 150.11 17.01 151.23 17.01 152.37 C17.06 163.9 17.09 175.44 17.11 186.97 C17.12 191.28 17.13 195.59 17.15 199.9 C17.18 206.08 17.19 212.26 17.2 218.43 C17.21 220.38 17.22 222.32 17.23 224.32 C17.23 226.1 17.23 227.88 17.23 229.72 C17.23 231.3 17.24 232.87 17.24 234.5 C17 238 17 238 15 239 C1.24 239.24 1.24 239.24 0 238 C-0.1 234.95 -0.12 231.9 -0.12 228.84 C-0.12 226.84 -0.12 224.84 -0.12 222.77 C-0.12 220.55 -0.12 218.33 -0.11 216.04 C-0.11 213.72 -0.11 211.4 -0.11 209 C-0.11 201.28 -0.11 193.56 -0.1 185.84 C-0.1 180.51 -0.09 175.17 -0.09 169.84 C-0.09 157.2 -0.08 144.56 -0.07 131.93 C-0.06 117.55 -0.06 103.16 -0.05 88.78 C-0.04 59.19 -0.02 29.59 0 0 Z M17 16 C16.8 19.58 16.75 23.16 16.76 26.75 C16.75 29.07 16.75 31.38 16.75 33.77 C16.75 36.3 16.76 38.83 16.77 41.44 C16.77 44.01 16.77 46.58 16.77 49.23 C16.77 54.68 16.78 60.13 16.79 65.58 C16.81 72.59 16.82 79.59 16.81 86.6 C16.81 93.25 16.82 99.91 16.83 106.56 C16.83 109.09 16.83 111.62 16.84 114.23 C16.84 116.55 16.85 118.86 16.85 121.25 C16.86 123.31 16.86 125.36 16.87 127.48 C17 132 17 132 18 133 C23.13 133.11 28.25 133.16 33.39 133.16 C35.01 133.17 36.63 133.17 38.31 133.18 C43.72 133.19 49.13 133.2 54.55 133.2 C58.31 133.21 62.07 133.21 65.83 133.22 C73.74 133.23 81.64 133.24 89.55 133.24 C99.65 133.25 109.74 133.27 119.83 133.3 C127.61 133.32 135.39 133.32 143.18 133.32 C146.89 133.33 150.61 133.33 154.33 133.35 C215.6 133.55 215.6 133.55 239 116 C239 115.34 239 114.68 239 114 C240.32 113.34 241.64 112.68 243 112 C252.64 100.35 256.13 88.68 256.19 73.62 C256.2 72.03 256.22 70.43 256.23 68.79 C255.31 49.57 245.72 34.81 229.88 24.25 C211.58 15.81 193.05 14.68 173.2 14.76 C172.36 14.76 172.36 14.76 168.12 14.75 C162.64 14.75 157.16 14.76 151.69 14.77 C147.86 14.77 144.04 14.77 140.21 14.77 C132.23 14.77 124.25 14.78 116.27 14.79 C106.01 14.81 95.76 14.82 85.51 14.81 C77.63 14.81 69.75 14.82 61.86 14.83 C58.08 14.83 54.3 14.83 50.51 14.83 C45.25 14.84 39.99 14.84 34.73 14.85 C33.94 14.85 33.94 14.85 29.96 14.85 C19.23 14.89 19.23 14.89 17 16 Z " fill="#FFFFFF" transform="translate(663.00,880.50)"/>
<path d="M0 0 C1.06 -0 1.06 -0 6.4 -0.01 C8.74 -0.01 11.08 -0 13.5 -0 C15.94 -0 18.39 -0.01 20.91 -0.01 C27.64 -0.01 34.38 -0.01 41.11 -0.01 C48.14 -0 55.17 -0.01 62.2 -0.01 C74 -0.01 85.81 -0.01 97.62 -0 C111.29 0 124.96 0 138.63 -0.01 C150.35 -0.01 162.06 -0.01 173.78 -0.01 C180.78 -0.01 187.79 -0.01 194.8 -0.01 C202.61 -0.01 210.41 -0.01 218.22 -0 C219.39 -0 219.39 -0 225.32 -0.01 C227.43 -0.01 229.54 -0 231.72 0 C232.64 0 232.64 0 237.32 0 C241.36 0.13 241.36 0.13 242.36 1.13 C242.6 13.88 242.6 13.88 241.36 15.13 C238.36 15.22 235.36 15.25 232.35 15.25 C231.37 15.25 231.37 15.25 226.38 15.25 C224.2 15.25 222.01 15.24 219.76 15.24 C217.48 15.24 215.2 15.24 212.85 15.24 C205.26 15.24 197.66 15.23 190.07 15.22 C184.83 15.22 179.58 15.22 174.34 15.22 C161.91 15.22 149.49 15.21 137.07 15.2 C122.93 15.19 108.79 15.18 94.65 15.18 C65.55 15.17 36.45 15.15 7.36 15.13 C7.69 45.49 8.02 75.85 8.36 107.13 C23.43 107.18 38.51 107.22 54.04 107.28 C63.56 107.31 73.08 107.35 82.6 107.38 C97.73 107.45 112.86 107.5 127.99 107.55 C140.18 107.59 152.37 107.63 164.56 107.69 C169.22 107.7 173.88 107.72 178.55 107.73 C185.05 107.75 191.55 107.78 198.06 107.81 C200.01 107.81 201.96 107.81 203.97 107.81 C205.73 107.83 207.49 107.84 209.3 107.85 C210.07 107.85 210.07 107.85 213.97 107.87 C217.36 108.13 217.36 108.13 218.36 110.13 C218.6 121.88 218.6 121.88 217.36 123.13 C214.67 123.24 211.99 123.27 209.3 123.29 C207.54 123.29 205.78 123.3 203.97 123.31 C202.02 123.32 200.07 123.33 198.06 123.33 C196.02 123.34 193.98 123.35 191.88 123.36 C185.1 123.39 178.32 123.42 171.54 123.44 C166.86 123.46 162.17 123.48 157.49 123.51 C145.13 123.56 132.77 123.61 120.4 123.66 C105.59 123.72 90.78 123.78 75.96 123.85 C53.43 123.95 30.89 124.04 8.36 124.13 C8.03 156.47 7.7 188.81 7.36 222.13 C10.94 222.12 10.94 222.12 29.08 222.11 C52.71 222.09 76.33 222.08 99.96 222.08 C114.29 222.07 128.62 222.06 142.95 222.05 C155.44 222.04 167.92 222.04 180.41 222.03 C187.02 222.03 193.64 222.03 200.25 222.02 C207.63 222.01 215 222.01 222.37 222.01 C223.48 222.01 223.48 222.01 229.07 222 C231.07 222 233.06 222.01 235.12 222.01 C236.87 222.01 238.61 222 240.41 222 C244.36 222.13 244.36 222.13 246.36 223.13 C246.52 228.12 246.52 233.13 246.36 238.13 C242.73 239.94 238.47 239.25 234.48 239.25 C233.41 239.26 233.41 239.26 228 239.26 C225.63 239.26 223.27 239.26 220.83 239.26 C218.35 239.26 215.88 239.26 213.33 239.26 C206.52 239.27 199.71 239.26 192.9 239.26 C185.79 239.26 178.68 239.26 171.57 239.26 C159.62 239.26 147.68 239.26 135.74 239.26 C121.91 239.25 108.08 239.25 94.26 239.26 C82.41 239.26 70.56 239.26 58.7 239.26 C51.62 239.26 44.53 239.26 37.44 239.26 C29.55 239.27 21.65 239.26 13.76 239.26 C11.39 239.26 9.02 239.26 6.58 239.26 C4.44 239.26 2.31 239.26 0.11 239.25 C-1.76 239.25 -3.63 239.25 -5.56 239.25 C-9.64 239.13 -9.64 239.13 -10.64 238.13 C-10.74 235.09 -10.77 232.05 -10.77 229.02 C-10.77 227.02 -10.78 225.03 -10.78 222.97 C-10.78 220.76 -10.77 218.55 -10.77 216.27 C-10.77 213.96 -10.78 211.65 -10.78 209.27 C-10.78 201.59 -10.78 193.9 -10.78 186.22 C-10.78 180.91 -10.78 175.6 -10.78 170.29 C-10.78 159.14 -10.78 148 -10.77 136.85 C-10.77 123.94 -10.77 111.03 -10.77 98.12 C-10.78 87.06 -10.78 76 -10.78 64.94 C-10.78 58.33 -10.78 51.71 -10.78 45.09 C-10.78 37.72 -10.78 30.35 -10.77 22.98 C-10.77 20.77 -10.78 18.56 -10.78 16.28 C-10.78 14.29 -10.77 12.29 -10.77 10.24 C-10.77 8.49 -10.77 6.75 -10.77 4.95 C-10.53 -2.19 -6.35 0 0 0 Z " fill="#FFFFFF" transform="translate(1400.64,880.37)"/>
<path d="M0 0 C25.88 -0.07 51.76 -0.12 77.64 -0.16 C89.65 -0.17 101.67 -0.19 113.69 -0.23 C125.3 -0.26 136.9 -0.28 148.51 -0.28 C152.93 -0.29 157.35 -0.3 161.77 -0.32 C167.98 -0.34 174.18 -0.34 180.39 -0.34 C181.3 -0.35 181.3 -0.35 185.88 -0.37 C216.69 -0.3 248.35 7.16 265.25 35.44 C277.76 60.73 278.2 90.23 264 115 C236.96 154 185.1 149.32 143.17 149.2 C139.51 149.19 135.85 149.19 132.19 149.19 C122.66 149.18 113.12 149.16 103.59 149.14 C93.82 149.12 84.05 149.11 74.29 149.1 C55.19 149.08 36.1 149.04 17 149 C17 150.11 17.01 151.23 17.01 152.37 C17.06 163.9 17.09 175.44 17.11 186.97 C17.12 191.28 17.13 195.59 17.15 199.9 C17.18 206.08 17.19 212.26 17.2 218.43 C17.21 220.38 17.22 222.32 17.23 224.32 C17.23 226.1 17.23 227.88 17.23 229.72 C17.23 231.3 17.24 232.87 17.24 234.5 C17 238 17 238 15 239 C1.24 239.24 1.24 239.24 0 238 C-0.1 234.95 -0.12 231.9 -0.12 228.84 C-0.12 226.84 -0.12 224.84 -0.12 222.77 C-0.12 220.55 -0.12 218.33 -0.11 216.04 C-0.11 213.72 -0.11 211.4 -0.11 209 C-0.11 201.28 -0.11 193.56 -0.1 185.84 C-0.1 180.51 -0.09 175.17 -0.09 169.84 C-0.09 157.2 -0.08 144.56 -0.07 131.93 C-0.06 117.55 -0.06 103.16 -0.05 88.78 C-0.04 59.19 -0.02 29.59 0 0 Z M17 16 C16.8 19.58 16.75 23.16 16.76 26.75 C16.75 29.07 16.75 31.38 16.75 33.77 C16.75 36.3 16.76 38.83 16.77 41.44 C16.77 44.01 16.77 46.58 16.77 49.23 C16.77 54.68 16.78 60.13 16.79 65.58 C16.81 72.59 16.82 79.59 16.81 86.6 C16.81 93.25 16.82 99.91 16.83 106.56 C16.83 109.09 16.83 111.62 16.84 114.23 C16.84 116.55 16.85 118.86 16.85 121.25 C16.86 123.31 16.86 125.36 16.87 127.48 C17 132 17 132 18 133 C23.26 133.11 28.51 133.16 33.77 133.16 C35.43 133.17 37.1 133.17 38.81 133.18 C44.36 133.19 49.91 133.2 55.46 133.2 C59.31 133.21 63.16 133.21 67.01 133.22 C75.11 133.23 83.22 133.24 91.32 133.24 C101.66 133.25 112.01 133.27 122.35 133.3 C130.32 133.32 138.29 133.32 146.26 133.32 C150.07 133.33 153.88 133.33 157.69 133.35 C229.4 133.58 229.4 133.58 248.31 105.62 C258.92 86.57 259.03 63.88 249.81 44.19 C232.97 16.86 201.37 14.65 172.18 14.76 C171.34 14.76 171.34 14.76 167.12 14.75 C161.69 14.75 156.25 14.76 150.81 14.77 C147.01 14.77 143.2 14.77 139.4 14.77 C131.47 14.77 123.55 14.78 115.62 14.79 C105.43 14.81 95.25 14.82 85.07 14.81 C77.24 14.81 69.4 14.82 61.57 14.83 C57.82 14.83 54.06 14.83 50.3 14.83 C45.07 14.84 39.85 14.84 34.62 14.85 C33.06 14.85 31.5 14.85 29.89 14.85 C19.23 14.89 19.23 14.89 17 16 Z " fill="#FFFFFF" transform="translate(352.00,880.50)"/>
<path d="M0 0 C3.12 -0.03 6.25 -0.05 9.38 -0.06 C11.12 -0.07 12.86 -0.09 14.65 -0.1 C20.46 0.03 20.46 0.03 23.7 5.85 C24.79 7.88 25.88 9.91 27 12 C29.27 15.81 31.56 19.6 33.88 23.38 C35.11 25.39 36.34 27.41 37.61 29.49 C40.09 33.52 42.57 37.54 45.06 41.56 C49.69 49.13 54.18 56.76 58.68 64.4 C62.61 71.03 66.62 77.61 70.66 84.18 C72.44 87.08 74.19 90.01 75.94 92.94 C78.89 97.82 81.94 102.63 85 107.44 C89.27 114.17 93.22 120.98 97 128 C98.01 129.59 99.02 131.18 100.06 132.81 C104.84 140.33 109.33 148 113.85 155.68 C117.49 161.83 121.23 167.92 125 174 C131.77 184.94 138.39 195.96 145 207 C145.56 207.91 145.56 207.91 148.37 212.49 C151 217 151 217 151 219 C156.32 216.34 157.75 212.5 160.55 207.43 C167.62 194.66 175.22 182.19 182.94 169.81 C187.19 162.98 191.17 156.08 195 149 C196.82 145.99 198.66 142.99 200.5 140 C204.55 133.43 208.32 126.78 212 120 C215.79 113.74 219.66 107.53 223.62 101.38 C225.77 97.96 227.82 94.48 229.75 90.94 C233.41 84.24 237.4 77.79 241.4 71.3 C243.39 68 245.28 64.64 247.12 61.25 C249.44 57.02 251.87 53.04 254.5 49 C258.31 43.14 261.67 37.15 265 31 C268.96 24.31 272.98 17.65 277 11 C278.09 9.17 279.19 7.33 280.31 5.44 C284.32 -1.19 285.25 -0.16 293 -0.19 C294.65 -0.2 296.3 -0.22 298 -0.23 C299.32 -0.15 300.64 -0.08 302 0 C303 2 303 2 300 8 C299.34 8 298.68 8 298 8 C297.34 9.98 296.68 11.96 296 14 C294.66 16.43 293.26 18.82 291.81 21.19 C291.01 22.51 290.2 23.82 289.38 25.18 C287.38 28.39 285.35 31.57 283.31 34.75 C279.96 40.06 276.98 45.48 274 51 C272.01 54.34 270.01 57.67 268 61 C266.85 62.98 265.69 64.96 264.5 67 C259.41 75.72 254.19 84.35 248.94 92.97 C242.75 103.13 236.6 113.32 230.59 123.59 C223.34 135.93 215.99 148.22 208.44 160.38 C205.1 165.83 202.04 171.38 199 177 C197 180.33 195 183.67 193 187 C191.93 189.02 190.86 191.04 189.75 193.12 C188.84 194.73 187.93 196.34 187 198 C186.34 198 185.68 198 185 198 C184.34 199.65 183.68 201.3 183 203 C180.38 207.7 177.72 212.36 175 217 C173.98 218.75 172.96 220.49 171.91 222.29 C170.85 224.09 169.78 225.89 168.69 227.75 C167.68 229.46 166.67 231.16 165.64 232.92 C161.49 239.34 160.69 238.96 152.62 239.44 C141.55 238.8 139.3 233.25 134.06 224.31 C133.06 222.62 132.06 220.92 131.04 219.18 C130.03 217.47 129.03 215.76 128 214 C124.3 207.81 120.57 201.65 116.81 195.5 C115.86 193.95 114.91 192.4 113.94 190.8 C112.97 189.22 112 187.63 111 186 C109.1 182.9 107.21 179.79 105.31 176.69 C99.53 167.23 93.73 157.78 87.88 148.38 C85.51 144.49 83.22 140.56 81.06 136.56 C77.97 130.95 74.59 125.64 71.09 120.28 C68.54 116.28 66.28 112.15 64 108 C62.14 104.99 60.29 101.97 58.42 98.96 C55.47 94.14 52.61 89.26 49.75 84.38 C44.53 75.51 39.11 66.81 33.58 58.14 C30.5 53.2 27.75 48.12 25 43 C22.35 38.66 19.69 34.32 17 30 C16.05 28.41 15.1 26.82 14.12 25.19 C10.54 19.24 6.82 13.39 3.07 7.54 C1 4 1 4 0 0 Z " fill="#FFFFFF" transform="translate(1051.00,880.50)"/>
<path d="M0 0 C12.3 -0.39 12.3 -0.39 16 0 C18.43 4.86 18.24 7.92 18.22 13.36 C18.21 15.33 18.21 17.3 18.21 19.34 C18.19 21.51 18.18 23.68 18.17 25.92 C18.16 28.2 18.15 30.48 18.15 32.83 C18.12 40.4 18.09 47.97 18.05 55.54 C18.03 60.78 18.01 66.02 17.99 71.26 C17.94 82.25 17.89 93.23 17.83 104.22 C17.77 116.95 17.72 129.67 17.67 142.39 C17.63 154.61 17.58 166.83 17.52 179.05 C17.5 184.26 17.48 189.47 17.46 194.68 C17.43 201.94 17.39 209.21 17.35 216.47 C17.35 218.65 17.34 220.83 17.33 223.07 C17.33 224.05 17.33 224.05 17.29 229.02 C17.28 230.74 17.28 232.46 17.27 234.23 C17 238 17 238 15 239 C1.24 239.24 1.24 239.24 0 238 C-0.1 234.95 -0.12 231.9 -0.12 228.84 C-0.12 226.84 -0.12 224.84 -0.12 222.77 C-0.12 220.55 -0.12 218.33 -0.11 216.04 C-0.11 213.72 -0.11 211.4 -0.11 209 C-0.11 201.28 -0.11 193.56 -0.1 185.84 C-0.1 180.51 -0.09 175.17 -0.09 169.84 C-0.09 157.2 -0.08 144.56 -0.07 131.93 C-0.06 117.55 -0.06 103.16 -0.05 88.78 C-0.04 59.19 -0.02 29.59 0 0 Z " fill="#FFFFFF" transform="translate(991.00,880.50)"/>
<!-- Accent mark on E — pumpkin orange for Style B -->
<path d="M0 0 C4 3 4 3 6 8 C4.39 14.44 -0.51 14.39 -6.5 16.5 C-13.81 19.1 -20.93 21.8 -28 25 C-31.86 26.46 -35.73 27.92 -39.6 29.36 C-48.86 32.82 -58.08 36.41 -67.25 40.12 C-85.18 47.2 -85.18 47.2 -90 46 C-90.66 44.02 -91.32 42.04 -92 40 C-87.9 35.9 -83.42 34.93 -78 33 C-76.35 32.01 -74.7 31.02 -73 30 C-70.52 29.02 -68.01 28.09 -65.5 27.19 C-58.14 24.49 -51.11 21.3 -44 18 C-42.17 17.33 -42.17 17.33 -33 14 C-28.67 12 -24.33 10 -20 8 C-15.68 6.31 -11.34 4.64 -7 3 C-4.69 2.01 -2.38 1.02 0 0 Z " fill="#E87722" transform="translate(1564.00,805.50)"/>
</svg>